# xmcd
#
# Track frame offsets:
#	150
#	16682
#	33655
#	49385
#	65207
#	81518
#	98685
#	112918
#	129068
#	146174
#	163975
#	179133
#	195774
#	215452
#	235052
#	264947
#
# Disc length: 3541 seconds
#
# Revision: 1
# Processed by: cddbd v1.5.2PL0 Copyright (c) Steve Scherf et al.
# Submitted via: audiograbber 1.83.01
#
DISCID=e00dd310
DTITLE=Various Artist - SC9004
DYEAR=2007
DGENRE=Karaoke
TTITLE0=Chesney, Kenny - Never Wanted Nothing More
TTITLE1=Atkins, Rodney - These Are My People
TTITLE2=Ingram, Jack - Measure Of A Man
TTITLE3=Morgan, Craig - Tough
TTITLE4=Van Zant - That Scares Me
TTITLE5=Keith, Toby - Love Me If You Can
TTITLE6=Strait, George - It Just Comes Natural
TTITLE7=Bentley, Dierks - Free And Easy (Down The Road I Go)
TTITLE8=Keith, Toby - I Know She Hung The Moon
TTITLE9=McEntire, Reba and Kelly Clarkson - Because Of You
TTITLE10=Church, Eric - Guys Like Me
TTITLE11=Deggs, Cole and The Lonesome - I Got More
TTITLE12=Green, Pat - Dixie Lullaby
TTITLE13=Keith, Toby - Big Dog Daddy
TTITLE14=Carrington, Rodney - Show Them To Me (Radio Version)
TTITLE15=Data - Data Track
EXTD=
EXTT0=
EXTT1=
EXTT2=
EXTT3=
EXTT4=
EXTT5=
EXTT6=
EXTT7=
EXTT8=
EXTT9=
EXTT10=
EXTT11=
EXTT12=
EXTT13=
EXTT14=
EXTT15=
PLAYORDER=
